<svg width="18" height="20" viewBox="0 0 18 20" fill="none" xmlns="http://www.w3.org/2000/svg">
<path d="M16.1963 12.1963L16.9034 11.4892H16.9034L16.1963 12.1963ZM16.5858 12.5858L15.8787 13.2929H15.8787L16.5858 12.5858ZM16.9478 14.3197L17.8953 14.6393L16.9478 14.3197ZM16.3198 14.9475L16.6394 15.8951L16.3198 14.9475ZM16.8124 12.831L17.6247 12.2477L16.8124 12.831ZM16.9868 13.2523L16 13.4143L16.9868 13.2523ZM9 1L9 0L9 1ZM1.0132 13.2523L2 13.4143L1.0132 13.2523ZM1.1875 12.831L0.375215 12.2477L1.1875 12.831ZM1.05245 14.3196L2 14L1.05245 14.3196ZM1.68018 14.9475L1.99979 14L1.68018 14.9475ZM12 15H13C13 14.4477 12.5523 14 12 14V15ZM6 15V14C5.44772 14 5 14.4477 5 15H6ZM2.12117 13.2929L2.51067 12.9034L1.09646 11.4892L0.706956 11.8787L2.12117 13.2929ZM3 11.7224V8H1V11.7224H3ZM15 8V11.7224H17V8H15ZM15.4892 12.9034L15.8787 13.2929L17.2929 11.8787L16.9034 11.4892L15.4892 12.9034ZM15.5856 14H2.41406V16H15.5856V14ZM16.0002 13.5858C16.0002 13.7899 15.9998 13.9015 15.9953 13.9825C15.9911 14.0565 15.9857 14.0431 16.0002 14L17.8953 14.6393C18.0134 14.2891 18.0002 13.8906 18.0002 13.5858H16.0002ZM15.5856 16C15.8905 16 16.2892 16.0132 16.6394 15.8951L16.0002 14C16.0432 13.9854 16.0566 13.9908 15.9824 13.995C15.9013 13.9996 15.7896 14 15.5856 14V16ZM16.0002 14L16.0002 14L16.6394 15.8951C17.2309 15.6955 17.6956 15.2312 17.8953 14.6393L16.0002 14ZM15.8787 13.2929C15.9428 13.357 15.9746 13.389 15.9973 13.4131C16.0157 13.4327 16.0108 13.4291 16.0001 13.4142L17.6247 12.2477C17.5184 12.0997 17.3885 11.9743 17.2929 11.8787L15.8787 13.2929ZM18.0002 13.5858C18.0002 13.4477 18.003 13.2695 17.9736 13.0904L16 13.4143C15.9972 13.3973 15.9981 13.3921 15.999 13.4185C16 13.4509 16.0002 13.4961 16.0002 13.5858H18.0002ZM16.0001 13.4142L16 13.4143L17.9736 13.0904C17.9238 12.7869 17.8047 12.4984 17.6247 12.2477L16.0001 13.4142ZM15 11.7224C15 12.1654 15.176 12.5902 15.4892 12.9034L16.9034 11.4892C16.9653 11.551 17 11.6349 17 11.7224H15ZM9 2C12.3137 1.99999 15 4.68628 15 8H17C17 3.58172 13.4183 -1.0848e-05 9 0L9 2ZM3 8C3 4.6863 5.6863 2.00001 9 2L9 0C4.58173 1.0848e-05 1 3.58173 1 8H3ZM2.51067 12.9034C2.82346 12.5906 3 12.166 3 11.7224H1C1 11.6344 1.03502 11.5506 1.09646 11.4892L2.51067 12.9034ZM2 13.5858C2 13.4955 2.00011 13.4504 2.00115 13.4175C2.00199 13.3909 2.00291 13.3966 2 13.4143L0.0264004 13.0904C-0.00307059 13.27 0 13.4497 0 13.5858H2ZM0.706956 11.8787C0.610918 11.9747 0.481402 12.0998 0.375215 12.2477L1.99979 13.4142C1.98924 13.4289 1.98454 13.4323 2.00285 13.4128C2.0254 13.3888 2.05722 13.3569 2.12117 13.2929L0.706956 11.8787ZM2 13.4143L1.99979 13.4142L0.375215 12.2477C0.194987 12.4987 0.0761418 12.7873 0.0264004 13.0904L2 13.4143ZM0 13.5858C0 13.8907 -0.0132215 14.2891 0.104905 14.6393L2 14C2.01452 14.0431 2.00915 14.0565 2.00496 13.9825C2.00037 13.9015 2 13.7899 2 13.5858H0ZM2.41406 14C2.21005 14 2.09844 13.9996 2.01744 13.995C1.94343 13.9908 1.95678 13.9855 1.99979 14L1.36056 15.8951C1.71073 16.0132 2.10909 16 2.41406 16V14ZM0.104905 14.6393C0.304421 15.2308 0.768594 15.6954 1.36056 15.8951L1.99979 14L2 14L0.104905 14.6393ZM11 15V16H13V15H11ZM7 16V15H5V16H7ZM6 16H12V14H6V16ZM9 18C7.89543 18 7 17.1046 7 16H5C5 18.2091 6.79086 20 9 20V18ZM11 16C11 17.1046 10.1046 18 9 18V20C11.2091 20 13 18.2091 13 16H11Z" fill="#14181F"/>
</svg>
